<svg width="430" height="945" viewBox="0 0 430 945" fill="none" xmlns="http://www.w3.org/2000/svg">
<g clip-path="url(#clip0_64_1390)">
<rect width="430" height="945" fill="white"/>
<path d="M165.135 628.708C205.012 628.124 225.714 613.152 262.304 597.287C314.472 574.668 366.52 574.758 386.68 521.592C401.795 481.731 394.197 450.719 374.017 413.167C342.3 354.145 281.773 363.621 220.348 336.851C155.961 308.79 106.134 229.044 51.9387 273.722C-3.88546 319.743 139.053 398.953 92.6432 454.454C65.7587 486.605 19.2382 462.686 -6.36125 495.869C-58.1066 562.945 80.4293 629.95 165.135 628.708Z" fill="#E58411" fill-opacity="0.6"/>
<path d="M164.87 606.195C199.357 605.709 217.254 592.771 248.891 579.068C293.998 559.532 339.012 559.634 356.423 513.664C369.476 479.199 362.889 452.375 345.419 419.89C317.959 368.831 265.617 376.997 212.481 353.816C156.781 329.517 113.65 260.526 66.8 299.139C18.5421 338.912 142.202 407.484 102.09 455.461C78.8546 483.253 38.6094 462.544 16.4855 491.23C-28.2346 549.214 91.6114 607.228 164.87 606.195Z" fill="#E58411"/>
<path d="M289.17 473.74C289.17 488.41 284.82 502.749 276.67 514.947C268.52 527.144 256.936 536.65 243.384 542.264C229.831 547.878 214.918 549.347 200.53 546.485C186.143 543.623 172.927 536.559 162.554 526.186C152.181 515.813 145.117 502.597 142.255 488.21C139.394 473.822 140.862 458.909 146.476 445.357C152.09 431.804 161.596 420.22 173.793 412.07C185.991 403.92 200.331 399.57 215 399.57C224.74 399.57 234.385 401.489 243.384 405.216C252.382 408.944 260.559 414.407 267.446 421.294C274.333 428.181 279.797 436.358 283.524 445.357C287.251 454.355 289.17 464 289.17 473.74ZM263.051 467.576C263.051 464.696 261.907 461.934 259.87 459.898C257.834 457.862 255.072 456.718 252.193 456.718C249.313 456.718 246.551 457.862 244.515 459.898C242.479 461.934 241.335 464.696 241.335 467.576V484.13H188.394V467.566C188.393 465.528 187.819 463.531 186.737 461.803C185.655 460.076 184.108 458.688 182.274 457.798C180.44 456.908 178.393 456.553 176.366 456.773C174.34 456.992 172.416 457.778 170.815 459.04C169.214 460.301 168 461.988 167.313 463.908C166.626 465.827 166.493 467.9 166.929 469.892C167.366 471.883 168.354 473.711 169.78 475.167C171.207 476.623 173.015 477.648 174.997 478.125V509.349C174.999 510.198 175.338 511.012 175.938 511.612C176.538 512.213 177.352 512.551 178.201 512.553H251.537C252.386 512.551 253.199 512.213 253.8 511.612C254.4 511.012 254.738 510.198 254.741 509.349V478.125C257.11 477.553 259.218 476.2 260.725 474.285C262.232 472.37 263.051 470.013 263.051 467.576ZM183.119 450.169C186.8 451.359 190.01 453.684 192.287 456.812C194.564 459.939 195.792 463.707 195.795 467.576V476.71H233.915V467.576C233.918 463.706 235.147 459.937 237.426 456.809C239.705 453.682 242.917 451.357 246.6 450.169V440.801C246.592 438.836 245.808 436.954 244.418 435.566C243.028 434.177 241.145 433.395 239.18 433.39H190.53C188.567 433.398 186.686 434.181 185.298 435.569C183.91 436.957 183.127 438.838 183.119 440.801V450.169Z" fill="white"/>
</g>
<defs>
<clipPath id="clip0_64_1390">
<rect width="430" height="945" fill="white"/>
</clipPath>
</defs>
</svg>
